<svg width="5" height="10" viewBox="0 0 5 10" fill="none" xmlns="http://www.w3.org/2000/svg">
<path id="Facebook" d="M1.08072 1.93668C1.08072 2.18869 1.08072 3.31349 1.08072 3.31349H0V4.99705H1.08072V10H3.30076V4.99719H4.79051C4.79051 4.99719 4.93003 4.18993 4.99766 3.30728C4.80376 3.30728 3.30915 3.30728 3.30915 3.30728C3.30915 3.30728 3.30915 2.32784 3.30915 2.15616C3.30915 1.98411 3.5512 1.75268 3.79044 1.75268C4.02923 1.75268 4.53321 1.75268 5 1.75268C5 1.52346 5 0.731461 5 6.01391e-09C4.37685 6.01391e-09 3.66791 6.01391e-09 3.35541 6.01391e-09C1.02585 -0.000116243 1.08072 1.68512 1.08072 1.93668Z" fill="#8B7EAC" fill-opacity="0.65"/>
</svg>
