<svg width="126" height="48" viewBox="0 0 126 80" fill="none" xmlns="http://www.w3.org/2000/svg">
<g id="Group 3">
<g id="Rectangle 4" filter="url(#filter0_d)">
<rect x="15" y="33" width="126" height="48" rx="5" fill="#F9F4F9"/>
</g>
<g id="YOGA LOGO" filter="url(#filter1_d)">
<path d="M72.46 60.16V65H70.48V60.12L64.92 51H67.06L71.54 58.38L76.04 51H78.02L72.46 60.16ZM87.7638 65.16C86.3504 65.16 85.0771 64.8533 83.9438 64.24C82.8104 63.6133 81.9171 62.7533 81.2638 61.66C80.6238 60.5667 80.3038 59.3467 80.3038 58C80.3038 56.6533 80.6238 55.4333 81.2638 54.34C81.9171 53.2467 82.8104 52.3933 83.9438 51.78C85.0771 51.1533 86.3504 50.84 87.7638 50.84C89.1638 50.84 90.4304 51.1533 91.5638 51.78C92.6971 52.3933 93.5838 53.2467 94.2238 54.34C94.8638 55.42 95.1838 56.64 95.1838 58C95.1838 59.36 94.8638 60.5867 94.2238 61.68C93.5838 62.76 92.6971 63.6133 91.5638 64.24C90.4304 64.8533 89.1638 65.16 87.7638 65.16ZM87.7638 63.38C88.7904 63.38 89.7104 63.1467 90.5238 62.68C91.3504 62.2133 91.9971 61.5733 92.4638 60.76C92.9438 59.9333 93.1838 59.0133 93.1838 58C93.1838 56.9867 92.9438 56.0733 92.4638 55.26C91.9971 54.4333 91.3504 53.7867 90.5238 53.32C89.7104 52.8533 88.7904 52.62 87.7638 52.62C86.7371 52.62 85.8038 52.8533 84.9638 53.32C84.1371 53.7867 83.4838 54.4333 83.0038 55.26C82.5371 56.0733 82.3038 56.9867 82.3038 58C82.3038 59.0133 82.5371 59.9333 83.0038 60.76C83.4838 61.5733 84.1371 62.2133 84.9638 62.68C85.8038 63.1467 86.7371 63.38 87.7638 63.38ZM109.941 57.92H111.861V63.38C111.167 63.9533 110.361 64.3933 109.441 64.7C108.521 65.0067 107.561 65.16 106.561 65.16C105.147 65.16 103.874 64.8533 102.741 64.24C101.607 63.6133 100.714 62.76 100.061 61.68C99.4206 60.5867 99.1006 59.36 99.1006 58C99.1006 56.64 99.4206 55.4133 100.061 54.32C100.714 53.2267 101.607 52.3733 102.741 51.76C103.887 51.1467 105.174 50.84 106.601 50.84C107.721 50.84 108.734 51.0267 109.641 51.4C110.561 51.76 111.341 52.2933 111.981 53L110.741 54.24C109.621 53.16 108.267 52.62 106.681 52.62C105.614 52.62 104.654 52.8533 103.801 53.32C102.961 53.7733 102.301 54.4133 101.821 55.24C101.341 56.0533 101.101 56.9733 101.101 58C101.101 59.0133 101.341 59.9333 101.821 60.76C102.301 61.5733 102.961 62.2133 103.801 62.68C104.654 63.1467 105.607 63.38 106.661 63.38C107.914 63.38 109.007 63.08 109.941 62.48V57.92ZM126.61 61.5H119.17L117.63 65H115.57L121.91 51H123.89L130.25 65H128.15L126.61 61.5ZM125.91 59.9L122.89 53.04L119.87 59.9H125.91Z" fill="url(#paint0_linear)"/>
</g>
<path id="Vector" d="M32.6099 70.0528C32.3936 70.3775 31.951 70.4679 31.6214 70.2548C31.288 70.0394 30.9689 69.803 30.6665 69.547L29.7736 68.7938C29.4737 68.5413 29.4385 68.097 29.6952 67.8019C29.9515 67.5064 30.4025 67.4716 30.7021 67.7245L31.5949 68.4788C31.8513 68.6952 32.1212 68.8955 32.4037 69.0783C32.734 69.291 32.8265 69.7278 32.6099 70.0528ZM38.4521 70.259C38.0103 70.3328 37.5631 70.3703 37.115 70.3703H36.7857C36.0086 70.3703 35.2354 70.2583 34.4915 70.0373C34.1134 69.9257 33.7151 70.1366 33.6014 70.5088C33.4877 70.8812 33.7022 71.274 34.0799 71.3856C34.9578 71.6454 35.8691 71.7777 36.7857 71.7777H37.115C37.643 71.7777 38.17 71.7337 38.6907 71.6468C39.0796 71.5818 39.3415 71.2187 39.2756 70.8355C39.2097 70.4521 38.841 70.1944 38.4521 70.259ZM59.2972 67.7259L58.4044 68.4801C58.148 68.6966 57.8777 68.8969 57.5956 69.0797C57.266 69.2934 57.1746 69.7302 57.3915 70.0549C57.6085 70.3799 58.0518 70.4699 58.3813 70.2562C58.7148 70.0422 59.0336 69.8071 59.3363 69.5525L60.2291 68.799C60.5291 68.5464 60.5643 68.1022 60.308 67.8067C60.0513 67.5115 59.6007 67.4768 59.3007 67.7294L59.2972 67.7259ZM55.5113 70.0387C54.7663 70.2597 53.9924 70.3713 53.2143 70.3703H52.885C52.4369 70.37 51.9897 70.3328 51.5479 70.259C51.159 70.1944 50.7903 70.4521 50.7244 70.8355C50.6585 71.2187 50.9204 71.5818 51.3093 71.6468C51.83 71.7337 52.357 71.7777 52.885 71.7777H53.2143C54.1309 71.7777 55.0422 71.6454 55.9201 71.3856C56.2978 71.274 56.5123 70.8812 56.3986 70.5088C56.2849 70.1366 55.8866 69.9257 55.5085 70.0373L55.5113 70.0387ZM61.8963 63.5044C62.0546 63.6381 62.1456 63.8332 62.1456 64.0384C62.1456 64.2438 62.0546 64.4387 61.8963 64.5727L59.3394 66.7329C57.6325 68.1712 55.4604 68.9619 53.2143 68.9629H52.8857C51.9162 68.9636 50.9521 68.8158 50.0286 68.5251C49.4803 71.4506 47.839 74.0675 45.4286 75.859C45.1747 76.047 44.8253 76.047 44.5714 75.859C42.1596 74.0678 40.5176 71.4506 39.9686 68.5245C39.0451 68.8158 38.0811 68.9636 37.1115 68.9629H36.7857C34.5407 68.9608 32.3703 68.1699 30.6644 66.7322L28.1065 64.5709C27.9482 64.4373 27.8571 64.2425 27.8571 64.037C27.8571 63.8315 27.9482 63.6367 28.1065 63.503L30.6637 61.3424C31.5416 60.6037 32.5506 60.0312 33.6401 59.6536C32.9614 58.5094 32.5024 57.2522 32.2859 55.9444L31.1213 48.6682C31.0861 48.4459 31.1607 48.2205 31.3218 48.0614C31.4833 47.9023 31.7125 47.8288 31.9378 47.8639L37.0536 48.659L38.6886 44.7711C38.7762 44.5632 38.9589 44.4093 39.1807 44.3567C39.4026 44.3024 39.6373 44.3577 39.8106 44.5044L41.5834 45.9885L44.3799 41.1667C44.5176 40.9615 44.7503 40.8378 45 40.8378C45.2497 40.8378 45.4824 40.9615 45.6201 41.1667L48.4148 45.9819L50.188 44.4979C50.362 44.3526 50.5961 44.2976 50.8179 44.3505C51.0397 44.4034 51.2228 44.5577 51.31 44.7652L52.9656 48.7126L58.4602 47.858C58.6858 47.8209 58.9157 47.8944 59.0765 48.0552C59.2379 48.2143 59.3126 48.4401 59.277 48.6624L58.1114 55.9389C57.8899 57.2955 57.4048 58.5974 56.6828 59.7732C57.6475 60.1494 58.5428 60.6796 59.3328 61.3424L61.8963 63.5044ZM51.2999 50.3986C46.9109 51.0814 43.5864 54.6659 43.2907 59.0338L43.2642 59.4334C43.1871 60.5697 43.6115 61.6833 44.4287 62.4887C44.7301 62.7863 45.0774 63.0347 45.4579 63.225C45.4677 63.2285 45.4757 63.2326 45.4851 63.2367C46.1175 63.548 46.8234 63.6862 47.5286 63.6367L47.9342 63.6099C50.8834 63.4085 53.5725 61.876 55.2201 59.4581C55.9835 58.3325 56.4886 57.0567 56.6999 55.7193L57.7141 49.4001L51.2999 50.3986ZM49.1364 47.2275L49.6059 48.037C49.82 48.4013 50.0206 48.7912 50.2187 49.1902C50.5043 49.1197 50.79 49.0538 51.0756 49.0094L51.5137 48.939L50.3634 46.1946L49.1364 47.2275ZM41.227 49.4795C42.7208 49.9846 44.0789 50.8164 45.1998 51.9122C45.6658 51.4586 46.1726 51.0477 46.7142 50.6848C47.3797 50.2495 48.0915 49.887 48.8372 49.6042C48.6851 49.3056 48.5292 49.0149 48.3657 48.7342L45 42.9366L41.6343 48.7363C41.5001 48.9778 41.3623 49.2235 41.227 49.4815V49.4795ZM38.5066 48.8792L39.3192 49.006C39.4835 49.029 39.6509 49.0579 39.8263 49.094C40.0136 48.7273 40.2005 48.3741 40.392 48.0384L40.8636 47.2248L39.6341 46.1981L38.5066 48.8792ZM33.6987 55.7207C33.9129 57.0567 34.4179 58.3311 35.1793 59.4567L35.3223 59.6543C36.1115 60.7655 37.1383 61.6926 38.3308 62.3705C39.1274 62.8213 39.986 63.156 40.88 63.3642C41.3979 63.4913 41.9266 63.5728 42.4592 63.6071L42.8728 63.636C43.1044 63.6466 43.3367 63.6387 43.5672 63.6119C43.5184 63.5676 43.4671 63.5274 43.4208 63.481C42.3113 62.3894 41.7355 60.8789 41.8408 59.3375L41.867 58.9379C42.0253 56.7519 42.8533 54.6648 44.2414 52.9523C43.0769 51.8077 41.6232 50.9903 40.0307 50.5842C39.7248 50.5058 39.4148 50.4433 39.1023 50.3966L32.6873 49.4001L33.6987 55.7207ZM40.255 66.9222C41.1897 66.5309 42.0386 65.9653 42.755 65.2564L42.9694 65.0455C42.907 65.0455 42.8442 65.0455 42.7815 65.0396L42.3692 65.0108C41.7554 64.9709 41.1468 64.8764 40.55 64.7293C38.133 64.1744 35.9867 62.8093 34.4786 60.8676C33.4197 61.1772 32.4383 61.7008 31.5963 62.4052L29.6687 64.037L31.597 65.6639C33.0434 66.8824 34.8828 67.5531 36.7857 67.5555H37.1143C38.1941 67.5565 39.2627 67.3411 40.255 66.9222ZM48.6778 67.9778C47.7752 67.5366 46.9514 66.9545 46.2378 66.2536L45 65.0321L43.7622 66.2515C43.049 66.9531 42.2248 67.5362 41.3222 67.9778C41.7181 70.4864 43.0249 72.7683 45 74.3991C46.9751 72.7683 48.2819 70.4864 48.6778 67.9778ZM60.3313 64.037L58.4065 62.41C57.6496 61.7795 56.7808 61.2919 55.8444 60.9724C53.9258 63.334 51.0934 64.7991 48.0308 65.0138L47.6249 65.0403C47.5042 65.0482 47.3828 65.0516 47.2621 65.0516C47.1844 65.0516 47.1066 65.0441 47.0285 65.0403L47.2478 65.2564C47.9632 65.9646 48.8107 66.5302 49.7437 66.9222C50.7366 67.3411 51.8059 67.5565 52.8864 67.5555H53.215C55.1193 67.5538 56.9608 66.8827 58.4079 65.6633L60.3313 64.037ZM25 64.7407H26.4286V63.3333H25V64.7407ZM30.7143 45.7407H29.2857V47.1481H30.7143V45.7407ZM45.7143 39.4074V38H44.2857V39.4074H45.7143ZM60.7143 45.7407H59.2857V47.1481H60.7143V45.7407ZM63.5714 64.7407H65V63.3333H63.5714V64.7407Z" fill="url(#paint1_linear)"/>
</g>
<defs>
<filter id="filter0_d" x="0" y="22" width="156" height="78" filterUnits="userSpaceOnUse" color-interpolation-filters="sRGB">
<feFlood flood-opacity="0" result="BackgroundImageFix"/>
<feColorMatrix in="SourceAlpha" type="matrix" values="0 0 0 0 0 0 0 0 0 0 0 0 0 0 0 0 0 0 127 0" result="hardAlpha"/>
<feOffset dy="4"/>
<feGaussianBlur stdDeviation="7.5"/>
<feColorMatrix type="matrix" values="0 0 0 0 0 0 0 0 0 0 0 0 0 0 0 0 0 0 0.2 0"/>
<feBlend mode="normal" in2="BackgroundImageFix" result="effect1_dropShadow"/>
<feBlend mode="normal" in="SourceGraphic" in2="effect1_dropShadow" result="shape"/>
</filter>
<filter id="filter1_d" x="14.92" y="0.839966" width="165.33" height="114.32" filterUnits="userSpaceOnUse" color-interpolation-filters="sRGB">
<feFlood flood-opacity="0" result="BackgroundImageFix"/>
<feColorMatrix in="SourceAlpha" type="matrix" values="0 0 0 0 0 0 0 0 0 0 0 0 0 0 0 0 0 0 127 0" result="hardAlpha"/>
<feOffset/>
<feGaussianBlur stdDeviation="25"/>
<feColorMatrix type="matrix" values="0 0 0 0 0.482353 0 0 0 0 0.47451 0 0 0 0 0.631373 0 0 0 0.7 0"/>
<feBlend mode="normal" in2="BackgroundImageFix" result="effect1_dropShadow"/>
<feBlend mode="normal" in="SourceGraphic" in2="effect1_dropShadow" result="shape"/>
</filter>
<linearGradient id="paint0_linear" x1="66.5" y1="73.5" x2="132.5" y2="47" gradientUnits="userSpaceOnUse">
<stop stop-color="#807DA4"/>
<stop offset="1" stop-color="#D2BFDD"/>
</linearGradient>
<linearGradient id="paint1_linear" x1="31.25" y1="70.8981" x2="58.3395" y2="43.4011" gradientUnits="userSpaceOnUse">
<stop stop-color="#7C7AA2"/>
<stop offset="1" stop-color="#D4C1DE"/>
</linearGradient>
</defs>
</svg>
