<svg width="12" height="8" viewBox="0 0 12 8" fill="none" xmlns="http://www.w3.org/2000/svg">
<path id="Twitter  x28 alt x29" d="M10.6404 3.55667C11.3143 3.50286 11.7715 3.20636 11.9474 2.80404C11.7043 2.94857 10.9496 3.10614 10.5329 2.95607C10.5124 2.86131 10.4896 2.77129 10.4672 2.69003C10.1496 1.56152 9.06228 0.652352 7.92295 0.762184C8.01513 0.726167 8.10862 0.692634 8.20183 0.66253C8.32724 0.619062 9.06303 0.503209 8.94717 0.251874C8.84952 0.030806 7.95054 0.418945 7.78128 0.469676C8.00472 0.388355 8.37425 0.248472 8.41384 0C8.07152 0.0454394 7.73547 0.202061 7.47581 0.429798C7.56955 0.332143 7.64067 0.213131 7.65576 0.0850471C6.74272 0.649517 6.20937 1.78753 5.77774 2.89144C5.43882 2.57358 5.13842 2.32327 4.86895 2.18428C4.11296 1.79196 3.20904 1.38262 1.79011 0.87288C1.74656 1.32719 2.02229 1.93127 2.81681 2.33299C2.64467 2.31069 2.32988 2.36045 2.07811 2.41879C2.18064 2.93925 2.51549 3.36805 3.422 3.57541C3.00772 3.60187 2.79362 3.69309 2.59958 3.88973C2.78826 4.25171 3.24869 4.67772 4.07694 4.59027C3.15609 4.97436 3.70147 5.68565 4.45076 5.57957C3.17252 6.85725 1.15724 6.76335 0 5.6947C3.02148 9.679 9.58947 8.05101 10.5683 4.21337C11.3016 4.21941 11.7327 3.96754 12 3.68986C11.5775 3.75924 10.9651 3.68753 10.6404 3.55667Z" fill="#8B7EAC" fill-opacity="0.65"/>
</svg>
