<svg xmlns="http://www.w3.org/2000/svg" viewBox="0 0 126 48"><path d="M5 0h116c2.8 0 5 2.2 5 5v38c0 2.8-2.2 5-5 5H5c-2.8 0-5-2.2-5-5V5c0-2.8 2.2-5 5-5z" fill="#f8f4f9"/><linearGradient id="a" gradientUnits="userSpaceOnUse" x1="50.46" y1="12.1" x2="116.46" y2="38.6" gradientTransform="matrix(1 0 0 -1 0 50)"><stop offset="0" stop-color="#807da3"/><stop offset="1" stop-color="#d1bfdd"/></linearGradient><path d="M57.5 27.2V32h-2v-4.9L49.9 18H52l4.5 7.4L61 18h2l-5.5 9.2zm15.3 5c-1.4 0-2.7-.3-3.8-.9-1.1-.6-2-1.5-2.7-2.6-.6-1.1-1-2.3-1-3.7s.3-2.6 1-3.7a7.5 7.5 0 012.7-2.6c1.1-.6 2.4-.9 3.8-.9s2.7.3 3.8.9c1.1.6 2 1.5 2.7 2.6.6 1.1 1 2.3 1 3.7s-.3 2.6-1 3.7c-.6 1.1-1.5 1.9-2.7 2.6-1.2.6-2.4.9-3.8.9zm0-1.8c1 0 1.9-.2 2.8-.7.8-.5 1.5-1.1 1.9-1.9.5-.8.7-1.7.7-2.8s-.2-1.9-.7-2.7c-.5-.8-1.1-1.5-1.9-1.9-.8-.5-1.7-.7-2.8-.7-1 0-2 .2-2.8.7-.8.5-1.5 1.1-2 1.9-.5.8-.7 1.7-.7 2.7s.2 1.9.7 2.8c.5.8 1.1 1.5 2 1.9.8.4 1.7.7 2.8.7zm22.1-5.5h1.9v5.5c-.7.6-1.5 1-2.4 1.3-.9.3-1.9.5-2.9.5-1.4 0-2.7-.3-3.8-.9-1.1-.6-2-1.5-2.7-2.6-.6-1.1-1-2.3-1-3.7s.3-2.6 1-3.7a7.5 7.5 0 012.7-2.6c1.1-.6 2.4-.9 3.9-.9a7.3 7.3 0 015.3 2.2l-1.2 1.2a5.58 5.58 0 00-4.1-1.6c-1.1 0-2 .2-2.9.7-.8.5-1.5 1.1-2 1.9-.5.8-.7 1.7-.7 2.8 0 1 .2 1.9.7 2.8.5.8 1.1 1.5 2 1.9.9.5 1.8.7 2.9.7 1.3 0 2.3-.3 3.3-.9v-4.6zm16.7 3.6h-7.4l-1.5 3.5h-2.1l6.3-14h2l6.4 14h-2.1l-1.6-3.5zm-.7-1.6l-3-6.9-3 6.9h6z" fill="url(#a)"/><linearGradient id="b" gradientUnits="userSpaceOnUse" x1="16.49" y1="11.87" x2="43.58" y2="39.37" gradientTransform="matrix(1 0 0 -1 0 50)"><stop offset="0" stop-color="#7c7aa2"/><stop offset="1" stop-color="#d3c1de"/></linearGradient><path d="M17.6 37.1c-.2.3-.7.4-1 .2l-1-.7-.9-.8c-.3-.3-.3-.7-.1-1 .3-.3.7-.3 1-.1l.9.8c.3.2.5.4.8.6.4.2.5.6.3 1zm5.9.2c-.4.1-.9.1-1.3.1h-.3c-.8 0-1.6-.1-2.3-.3-.4-.1-.8.1-.9.5-.1.4.1.8.5.9.9.3 1.8.4 2.7.4h.3c.5 0 1.1 0 1.6-.1.4-.1.7-.4.6-.8-.2-.5-.6-.8-.9-.7zm20.8-2.6l-.9.8c-.3.2-.5.4-.8.6-.3.2-.4.7-.2 1 .2.3.7.4 1 .2.3-.2.7-.4 1-.7l.9-.8c.3-.3.3-.7.1-1a.9.9 0 00-1.1-.1zM40.5 37c-.7.2-1.5.3-2.3.3h-.3c-.4 0-.9 0-1.3-.1s-.8.2-.8.6c-.1.4.2.7.6.8.5.1 1 .1 1.6.1h.3c.9 0 1.8-.1 2.7-.4.4-.1.6-.5.5-.9-.2-.3-.6-.5-1-.4zm6.4-6.5c.2.1.2.3.2.5s-.1.4-.2.5l-2.6 2.2a9.7 9.7 0 01-6.1 2.2h-.3c-1 0-1.9-.1-2.9-.4-.5 2.9-2.2 5.5-4.6 7.3-.3.2-.6.2-.9 0-2.4-1.8-4.1-4.4-4.6-7.3-.9.3-1.8.5-2.8.5h-.3c-2.2 0-4.4-.8-6.1-2.2l-2.6-2.2c-.2-.1-.2-.3-.2-.5s.1-.4.2-.5l2.6-2.2c.9-.7 1.9-1.3 3-1.7-.7-1.1-1.1-2.4-1.4-3.7l-1.2-7.3c0-.2 0-.4.2-.6.2-.2.4-.2.6-.2l5.1.8 1.6-3.9c.1-.2.3-.4.5-.4.2-.1.5 0 .6.1l1.8 1.5 2.8-4.8c.2-.2.5-.4.7-.4s.5.1.6.3l2.8 4.8 1.8-1.5c.2-.1.4-.2.6-.1.2.1.4.2.5.4l1.7 3.9 5.5-.9c.2 0 .5 0 .6.2.2.2.2.4.2.6l-1.2 7.3c-.2 1.4-.7 2.7-1.4 3.8 1 .4 1.9.9 2.7 1.6l2.5 2.3zM36.3 17.4c-4.4.7-7.7 4.3-8 8.6v.4a3.85 3.85 0 002.2 3.8c.6.3 1.3.4 2 .4h.4a9.6 9.6 0 007.3-4.2c.8-1.1 1.3-2.4 1.5-3.7l1-6.3-6.4 1zm-2.2-3.2l.5.8.6 1.2c.3-.1.6-.1.9-.2l.4-.1-1.2-2.7-1.2 1zm-7.9 2.3c1.5.5 2.9 1.3 4 2.4.5-.5 1-.9 1.5-1.2.7-.4 1.4-.8 2.1-1.1-.2-.3-.3-.6-.5-.9L30 9.9l-3.4 5.8a3 3 0 01-.4.8zm-2.7-.6l.8.1c.2 0 .3.1.5.1.2-.4.4-.7.6-1.1l.5-.8-1.2-1-1.2 2.7zm-4.8 6.8c.2 1.3.7 2.6 1.5 3.7l.1.2a9.72 9.72 0 005.5 3.7c.5.1 1 .2 1.6.2h1.1l-.1-.1a5.35 5.35 0 01-1.6-4.1v-.4c.2-2.2 1-4.3 2.4-6-1.2-1.1-2.6-2-4.2-2.4-.3-.1-.6-.1-.9-.2l-6.4-1 1 6.4zm6.6 11.2c.9-.4 1.8-1 2.5-1.7l.2-.2H27.4c-.6 0-1.2-.1-1.8-.3-2.4-.6-4.6-1.9-6.1-3.9-1.1.3-2 .8-2.9 1.5L14.7 31l1.9 1.6c1.4 1.2 3.3 1.9 5.2 1.9h.3c1.1.1 2.2-.2 3.2-.6zm8.4 1.1c-.9-.4-1.7-1-2.4-1.7L30 32l-1.2 1.2c-.8.8-1.6 1.3-2.5 1.8.4 2.5 1.7 4.8 3.7 6.4 2-1.6 3.3-3.9 3.7-6.4zm11.6-4l-1.9-1.6c-.8-.6-1.6-1.1-2.6-1.4-1.9 2.4-4.8 3.8-7.8 4h-1l.2.2c.7.7 1.6 1.3 2.5 1.7 1 .4 2.1.6 3.1.6h.3c1.9 0 3.7-.7 5.2-1.9l2-1.6zm-35.3.7h1.4v-1.4H10v1.4zm5.7-19h-1.4v1.4h1.4v-1.4zm15-6.3V5h-1.4v1.4h1.4zm15 6.3h-1.4v1.4h1.4v-1.4zm2.9 19H50v-1.4h-1.4v1.4z" fill="url(#b)"/></svg>